<svg width="244" height="29" viewBox="0 0 244 29" fill="none" xmlns="http://www.w3.org/2000/svg">
<g clip-path="url(#clip0_696_4)">
<path d="M0 0H9.56862L14.3529 9.59246L28.7059 0V28.7774H19.1372V15.9874L14.3529 19.1849L9.56862 9.59246V28.7774H0V0Z" fill="white"/>
<path d="M148.313 0H157.882L162.666 9.59246L177.019 0V28.7774H167.451V15.9874L162.666 19.1849L157.882 9.59246V28.7774H148.313V0Z" fill="white"/>
<path d="M43.0589 4.79626V28.7774H33.4902V14.3887L43.0589 4.79626Z" fill="white"/>
<path d="M33.4902 9.59246L43.0589 0H33.4902V9.59246Z" fill="white"/>
<path d="M66.98 0L76.5486 9.59246H62.1957L76.5486 19.1849V28.7774H57.4114L47.8428 19.1849H62.1957L47.8428 9.59246V0H66.98Z" fill="white"/>
<path d="M81.3335 0H90.9021V9.59246L110.039 14.3887V28.7774H100.471V21.583L90.9021 19.1849V28.7774H81.3335V0Z" fill="white"/>
<path fill-rule="evenodd" clip-rule="evenodd" d="M143.53 4.79623V14.3887V28.7774H133.961V19.1849L124.392 23.9812V28.7774H114.824V9.59246L124.392 0H143.53V4.79623ZM133.961 9.59246H124.392V14.3887L133.961 9.59246Z" fill="white"/>
<path fill-rule="evenodd" clip-rule="evenodd" d="M205.725 28.7774L210.51 23.9812V9.59246L200.941 0H186.588L181.804 4.79623V19.1849L191.372 28.7774H205.725ZM191.372 19.1849V9.59246H200.941V19.1849H191.372Z" fill="white"/>
<path d="M215.294 28.7774H244L234.431 19.1849H224.863V0H215.294V28.7774Z" fill="white"/>
</g>
<defs>
<clipPath id="clip0_696_4">
<rect width="244" height="29" fill="white"/>
</clipPath>
</defs>
</svg>
