<svg width="212" height="212" viewBox="0 0 212 212" fill="none" xmlns="http://www.w3.org/2000/svg">
<path d="M15.7451 67.1359C15.0461 67.9912 15.1727 69.2511 16.028 69.9502C16.8832 70.6492 18.1432 70.5225 18.8422 69.6673L15.7451 67.1359ZM106.4 41.5033L106.936 39.5764L106.936 39.5764L106.4 41.5033ZM154.886 185.321C155.408 186.294 156.62 186.661 157.593 186.14L173.464 177.648C174.438 177.127 174.805 175.915 174.284 174.941C173.763 173.967 172.551 173.6 171.577 174.121L157.47 181.67L149.921 167.563C149.4 166.589 148.188 166.222 147.214 166.743C146.24 167.264 145.873 168.476 146.394 169.45L154.886 185.321ZM17.2937 68.4016C18.8422 69.6673 18.8418 69.6678 18.8414 69.6682C18.8415 69.6682 18.8413 69.6684 18.8414 69.6682C18.8417 69.6679 18.8425 69.667 18.8438 69.6654C18.8463 69.6623 18.851 69.6566 18.8578 69.6485C18.8713 69.6322 18.893 69.6061 18.9231 69.5705C18.9831 69.4993 19.0761 69.3901 19.2016 69.2461C19.4526 68.9579 19.8335 68.5303 20.3408 67.9872C21.3557 66.9008 22.8752 65.3541 24.8713 63.5394C28.8661 59.9078 34.7548 55.2171 42.314 50.994C57.414 42.5582 79.1462 35.9984 105.864 43.4301L106.936 39.5764C78.9655 31.7963 56.1443 38.6856 40.3632 47.502C32.4819 51.9049 26.3481 56.7911 22.1806 60.5797C20.0955 62.4752 18.4988 64.0995 17.4179 65.2566C16.8773 65.8352 16.4653 66.2974 16.1855 66.6187C16.0455 66.7794 15.9386 66.9048 15.8651 66.992C15.8283 67.0356 15.7999 67.0697 15.7799 67.0938C15.7699 67.1058 15.762 67.1154 15.7562 67.1224C15.7533 67.126 15.7509 67.1288 15.749 67.1311C15.7481 67.1322 15.7471 67.1334 15.7467 67.134C15.7458 67.135 15.7451 67.1359 17.2937 68.4016ZM105.864 43.4301C132.443 50.823 149.323 70.2348 157.264 95.6651C165.224 121.155 164.168 152.65 154.736 183.797L158.564 184.957C168.171 153.235 169.335 120.9 161.082 94.4728C152.811 67.9863 135.047 47.3955 106.936 39.5764L105.864 43.4301Z" fill="white"/>
</svg>
